<svg width="24" height="24" viewBox="0 0 24 24" fill="none" xmlns="http://www.w3.org/2000/svg">
<path fill-rule="evenodd" clip-rule="evenodd" d="M7.99999 2C7.20435 2 6.44128 2.31607 5.87867 2.87868C5.31607 3.44129 4.99999 4.20435 4.99999 5C4.99999 5.79565 5.31607 6.55871 5.87867 7.12132C6.44128 7.68393 7.20435 8 7.99999 8C8.79564 8 9.55871 7.68393 10.1213 7.12132C10.6839 6.55871 11 5.79565 11 5C11 4.20435 10.6839 3.44129 10.1213 2.87868C9.55871 2.31607 8.79564 2 7.99999 2ZM6.99999 5C6.99999 4.73478 7.10535 4.48043 7.29289 4.29289C7.48042 4.10536 7.73478 4 7.99999 4C8.26521 4 8.51956 4.10536 8.7071 4.29289C8.89464 4.48043 8.99999 4.73478 8.99999 5C8.99999 5.26522 8.89464 5.51957 8.7071 5.70711C8.51956 5.89464 8.26521 6 7.99999 6C7.73478 6 7.48042 5.89464 7.29289 5.70711C7.10535 5.51957 6.99999 5.26522 6.99999 5ZM16 2C15.2043 2 14.4413 2.31607 13.8787 2.87868C13.3161 3.44129 13 4.20435 13 5C13 5.79565 13.3161 6.55871 13.8787 7.12132C14.4413 7.68393 15.2043 8 16 8C16.7956 8 17.5587 7.68393 18.1213 7.12132C18.6839 6.55871 19 5.79565 19 5C19 4.20435 18.6839 3.44129 18.1213 2.87868C17.5587 2.31607 16.7956 2 16 2ZM15 5C15 4.73478 15.1054 4.48043 15.2929 4.29289C15.4804 4.10536 15.7348 4 16 4C16.2652 4 16.5196 4.10536 16.7071 4.29289C16.8946 4.48043 17 4.73478 17 5C17 5.26522 16.8946 5.51957 16.7071 5.70711C16.5196 5.89464 16.2652 6 16 6C15.7348 6 15.4804 5.89464 15.2929 5.70711C15.1054 5.51957 15 5.26522 15 5ZM4.10299 11.181C4.07784 10.9042 4.11065 10.6252 4.19933 10.3618C4.28801 10.0985 4.43061 9.85643 4.61804 9.65122C4.80546 9.44601 5.0336 9.28212 5.2879 9.16999C5.5422 9.05787 5.81707 8.99997 6.09499 9H9.90499C10.1829 8.99997 10.4578 9.05787 10.7121 9.16999C10.9664 9.28212 11.1945 9.44601 11.382 9.65122C11.5694 9.85643 11.712 10.0985 11.8007 10.3618C11.8893 10.6252 11.9221 10.9042 11.897 11.181L10.996 21.091C10.9733 21.3395 10.8585 21.5704 10.6743 21.7386C10.49 21.9068 10.2495 22 9.99999 22H5.99999C5.75035 22 5.50973 21.9067 5.32542 21.7383C5.14112 21.5699 5.02646 21.3386 5.00399 21.09L4.10299 11.181ZM6.09499 11L6.91299 20H9.08699L9.90499 11H6.09499ZM14.82 9C14.3576 9.00005 13.9096 9.16029 13.5521 9.45346C13.1945 9.74663 12.9496 10.1546 12.859 10.608L12.019 14.804C11.99 14.9491 11.9936 15.0988 12.0294 15.2424C12.0653 15.386 12.1326 15.5198 12.2264 15.6342C12.3203 15.7486 12.4383 15.8408 12.5721 15.904C12.7059 15.9673 12.852 16.0001 13 16V21C13 21.2652 13.1054 21.5196 13.2929 21.7071C13.4804 21.8946 13.7348 22 14 22H18C18.2652 22 18.5196 21.8946 18.7071 21.7071C18.8946 21.5196 19 21.2652 19 21V16C19.1479 15.9999 19.2939 15.967 19.4276 15.9037C19.5612 15.8404 19.6792 15.7482 19.7729 15.6338C19.8666 15.5194 19.9338 15.3856 19.9696 15.2422C20.0054 15.0987 20.009 14.949 19.98 14.804L19.142 10.608C19.0513 10.1544 18.8063 9.74633 18.4485 9.45314C18.0908 9.15995 17.6425 8.99982 17.18 9H14.82ZM15 15C15.0001 14.7721 14.9223 14.5509 14.7795 14.3733C14.6368 14.1956 14.4376 14.072 14.215 14.023L14.82 11H17.18L17.785 14.023C17.5624 14.072 17.3632 14.1956 17.2205 14.3733C17.0777 14.5509 16.9999 14.7721 17 15V20H15V15Z" fill="black"/>
</svg>
